<svg xml:space="preserve" style="enable-background:new 0 0 1024 1024;" viewBox="0 0 1024 1024" y="0px" x="0px" xmlns:xlink="http://www.w3.org/1999/xlink" xmlns="http://www.w3.org/2000/svg" id="图层_1" version="1.1">
<style type="text/css">
	.st0{fill:#D6791A;}
	.st1{fill:#EDA12A;}
	.st2{fill:#FFE03D;}
	.st3{fill:#D49700;}
	.st4{fill:#FEFFF9;}
	.st5{fill:#F4CC3E;}
	.st6{fill:#FFDFD3;}
	.st7{fill:#FE5631;}
	.st8{fill:#BB8900;}
	.st9{fill:#FFFFFF;}
	.st10{fill:#B36B00;}
	.st11{fill:#C98A00;}
	.st12{fill:#EBC08B;}
	.st13{fill:#955E20;}
	.st14{fill:#542200;}
	.st15{fill:#824900;}
	.st16{fill-rule:evenodd;clip-rule:evenodd;fill:#9AE100;}
	.st17{fill-rule:evenodd;clip-rule:evenodd;fill:#9820AB;}
	.st18{fill-rule:evenodd;clip-rule:evenodd;fill:#FFFFFF;}
	.st19{fill-rule:evenodd;clip-rule:evenodd;fill:#3BD400;}
	.st20{fill-rule:evenodd;clip-rule:evenodd;fill:#EA1F00;}
	.st21{fill:#771000;}
	.st22{fill-rule:evenodd;clip-rule:evenodd;fill:#FFA421;}
	.st23{fill-rule:evenodd;clip-rule:evenodd;}
	.st24{fill:#E67907;}
	.st25{clip-path:url(#SVGID_2_);fill-rule:evenodd;clip-rule:evenodd;fill:#FF2734;}
	.st26{clip-path:url(#SVGID_2_);fill-rule:evenodd;clip-rule:evenodd;fill:#BFE583;}
	.st27{clip-path:url(#SVGID_2_);fill-rule:evenodd;clip-rule:evenodd;fill:#4D8300;}
	.st28{fill:#970000;}
	.st29{fill-rule:evenodd;clip-rule:evenodd;fill:#FF816A;}
	.st30{fill-rule:evenodd;clip-rule:evenodd;fill:#FFB85D;}
	.st31{clip-path:url(#SVGID_4_);}
	.st32{fill-rule:evenodd;clip-rule:evenodd;fill:#E39A00;}
	.st33{fill:#996B00;}
	.st34{fill-rule:evenodd;clip-rule:evenodd;fill:#D67E00;}
	.st35{fill-rule:evenodd;clip-rule:evenodd;fill:#D82200;}
	.st36{clip-path:url(#SVGID_4_);fill:#FF755F;}
	.st37{fill-rule:evenodd;clip-rule:evenodd;fill:#FFD755;}
	.st38{fill-rule:evenodd;clip-rule:evenodd;fill:#FFB110;}
	.st39{fill-rule:evenodd;clip-rule:evenodd;fill:#FFE7D6;}
	.st40{fill-rule:evenodd;clip-rule:evenodd;fill:#FFC37F;}
	.st41{fill-rule:evenodd;clip-rule:evenodd;fill:#FFEEC2;}
	.st42{fill-rule:evenodd;clip-rule:evenodd;fill:#F5FF6E;}
	.st43{clip-path:url(#SVGID_6_);fill-rule:evenodd;clip-rule:evenodd;fill:#B5E900;}
	.st44{clip-path:url(#SVGID_6_);fill-rule:evenodd;clip-rule:evenodd;fill:#8AC300;}
	.st45{clip-path:url(#SVGID_6_);}
	.st46{fill:#FFE46E;}
	.st47{fill:#FFBB1D;}
	.st48{clip-path:url(#SVGID_6_);fill:#FFFFFF;}
	.st49{clip-path:url(#SVGID_6_);fill-rule:evenodd;clip-rule:evenodd;fill:#FFFFFA;}
	.st50{fill-rule:evenodd;clip-rule:evenodd;fill:#8AC300;}
	.st51{clip-path:url(#SVGID_8_);}
	.st52{fill-rule:evenodd;clip-rule:evenodd;fill:#6500DD;}
	.st53{clip-path:url(#SVGID_8_);fill-rule:evenodd;clip-rule:evenodd;fill:#FFFFFF;}
	.st54{fill-rule:evenodd;clip-rule:evenodd;fill:#E5FBA5;}
	.st55{fill:#829500;}
	.st56{fill-rule:evenodd;clip-rule:evenodd;fill:#ECB4CD;}
	.st57{clip-path:url(#SVGID_10_);fill-rule:evenodd;clip-rule:evenodd;fill:#FFC7BF;}
	.st58{clip-path:url(#SVGID_10_);fill-rule:evenodd;clip-rule:evenodd;fill:#FF8C72;}
	.st59{fill-rule:evenodd;clip-rule:evenodd;fill:#FFEEC3;}
	.st60{fill-rule:evenodd;clip-rule:evenodd;fill:#FF9666;}
	.st61{fill-rule:evenodd;clip-rule:evenodd;fill:#FF663F;}
	.st62{display:none;opacity:0.5;}
	.st63{display:inline;fill-rule:evenodd;clip-rule:evenodd;fill:#777EFF;}
	.st64{fill:#D8F4FF;}
	.st65{clip-path:url(#SVGID_12_);fill:#81C2E2;}
	.st66{clip-path:url(#SVGID_12_);fill:#7BCEF0;}
	.st67{clip-path:url(#SVGID_12_);fill:#79CEEB;}
	.st68{clip-path:url(#SVGID_12_);fill:#C2E7F7;}
	.st69{clip-path:url(#SVGID_12_);fill:#FFFFFF;}
</style>
<g>
	<g>
		<path d="M636.1,123.4c-28.9-5.1-104,66.8-104,66.8s-106.5-74.3-130.2-63.3c-16.9,7.8,4.4,85.7,4.4,85.7l119.6,156.6
			L776.5,336c0,0,46.6-75.3,38.2-93c-8.3-17.4-137.2-4.7-137.2-4.7S669.7,141.7,636.1,123.4z" class="st19"></path>
		<path d="M632.9,123.1c1.1,0,2.1,0.1,3.1,0.3c33.6,18.4,41.5,114.9,41.5,114.9s45.4-4.5,84.1-4.5c26.5,0,49.7,2.1,53.1,9.2
			c8.4,17.7-38.2,93-38.2,93l-250.6,33.2L406.3,212.6c0,0-21.4-77.9-4.4-85.7c1.6-0.8,3.6-1.1,6-1.1c31.8,0,124.2,64.4,124.2,64.4
			S602.1,123.1,632.9,123.1 M632.9,91.8c-30.8,0-73.2,31.6-103.8,58.6c-35.7-23.4-90.6-55.9-121.2-55.9c-7,0-13.4,1.3-19.1,4
			c-19.1,8.8-37.8,30.7-12.7,122.5l1.6,5.9l3.7,4.8L501,388.2l11,14.4l18-2.4L780.6,367l14.7-2l7.8-12.6
			c55.6-89.9,44.6-113.1,39.8-123c-10.8-22.6-38-27-81.4-27c-19.4,0-40.3,1.1-56.7,2.2c-6.1-37.3-20.5-90.6-53.8-108.8l-4.5-2.5
			l-5.1-0.9C638.7,92,635.8,91.8,632.9,91.8L632.9,91.8z"></path>
	</g>
	<g>
		<path d="M602.5,220.7C855.8,294.6,902.7,474,841.7,587.8C798,669.3,667,732,581.3,811.8
			C390,990,184.9,869.2,205,692.1c10.5-92.9-41.9-248.9-3.6-353C255.3,192.5,365.2,151.5,602.5,220.7z" class="st20"></path>
		<path d="M387.3,915.4c-32.3,0-63.6-7.2-92.7-21.9c-73.7-37.1-114.9-116.9-105.2-203.2c4-34.9-1.6-80.7-7.6-129.1
			c-9.2-75.5-19.7-161.1,4.8-227.5C245.8,173,367.6,135.8,606.8,205.7c127.8,37.3,218.8,106.7,256.1,195.6
			c27,64.2,24.3,134.9-7.4,193.9C826.6,649,765.1,692.9,700,739.3c-37.5,26.8-76.3,54.4-108,83.9C527,883.8,455,915.4,387.3,915.4z
			 M413.2,203.7c-116.4,0-166.1,56.7-197.1,140.8c-21.8,59.3-12.3,137.4-3.1,212.9c6.1,50.3,12,97.9,7.6,136.5
			c-8.4,74.3,25.4,140.1,88.1,171.7c78,39.3,175.9,14.9,262-65.3c33.2-30.9,72.8-59.2,111.2-86.5c62-44.2,120.6-86,146-133.4
			c27.2-50.7,29.4-111.5,6.1-167c-33.6-80-117.4-143.1-235.9-177.7C522.4,213.7,461.9,203.7,413.2,203.7z"></path>
	</g>
	<ellipse ry="25.8" rx="26.6" cy="286.4" cx="331.2" class="st18"></ellipse>
	<g>
		<path d="M622.9,643c-2.5,2.5-5.2,4.8-8,7c1.7-1.3,3.3-2.6,5-3.8c-0.3,0.2-0.5,0.4-0.8,0.6c-2.9,1.5-5.1,3.6-6.9,6.3
			c-2.2,2.4-3.6,5.1-4.4,8.3c-1,3.3-1.2,6.5-0.4,9.8c0.1,3.3,1.1,6.3,2.9,9.1c1.3,1.7,2.6,3.3,3.8,5c3.1,3,6.7,5.1,10.8,6.3
			c2.2,0.3,4.3,0.6,6.5,0.9c4.4,0,8.5-1.1,12.4-3.3c4.8-3.6,9.5-7.2,13.8-11.4c2.4-2.2,4.1-4.8,5.1-7.9c1.5-2.9,2.2-6.1,2.1-9.4
			c0.1-3.4-0.6-6.5-2.1-9.4c-1-3-2.7-5.7-5.1-7.9c-1.7-1.3-3.3-2.6-5-3.8c-3.8-2.2-7.9-3.3-12.4-3.3c-2.2,0.3-4.3,0.6-6.5,0.9
			C629.5,637.8,625.9,639.9,622.9,643L622.9,643z" class="st21"></path>
	</g>
	<g>
		<path d="M496,650c-3.1,5.2-6.2,10.5-9.2,15.7c-1.8,2.8-2.8,5.8-2.9,9.1c-0.7,3.3-0.6,6.5,0.4,9.8
			c0.8,3.2,2.2,6,4.4,8.3c1.7,2.7,4,4.8,6.9,6.3c2,0.8,3.9,1.6,5.9,2.5c4.3,1.2,8.7,1.2,13,0c2-0.8,3.9-1.6,5.9-2.5
			c3.7-2.2,6.6-5.1,8.8-8.8c3.1-5.2,6.2-10.5,9.2-15.7c1.8-2.8,2.8-5.8,2.9-9.1c0.7-3.3,0.6-6.5-0.4-9.8c-0.8-3.2-2.2-6-4.4-8.3
			c-1.7-2.7-4-4.8-6.9-6.3c-2-0.8-3.9-1.6-5.9-2.5c-4.3-1.2-8.7-1.2-13,0c-2,0.8-3.9,1.6-5.9,2.5C501.1,643.4,498.2,646.3,496,650
			L496,650z" class="st21"></path>
	</g>
	<g>
		<path d="M454.6,541.4c-1.5,3.7-3.1,7.3-4.6,11c-1.8,2.8-2.8,5.8-2.9,9.1c-0.7,3.3-0.6,6.5,0.4,9.8
			c0.8,3.2,2.2,6,4.4,8.3c1.7,2.7,4,4.8,6.9,6.3c2,0.8,3.9,1.6,5.9,2.5c4.3,1.2,8.7,1.2,13,0c2-0.8,3.9-1.6,5.9-2.5
			c3.7-2.2,6.6-5.1,8.8-8.8c1.5-3.7,3.1-7.3,4.6-11c1.8-2.8,2.8-5.8,2.9-9.1c0.7-3.3,0.6-6.5-0.4-9.8c-0.8-3.2-2.2-6-4.4-8.3
			c-1.7-2.7-4-4.8-6.9-6.3c-2-0.8-3.9-1.6-5.9-2.5c-4.3-1.2-8.7-1.2-13,0c-2,0.8-3.9,1.6-5.9,2.5
			C459.7,534.8,456.8,537.7,454.6,541.4L454.6,541.4z" class="st21"></path>
	</g>
	<g>
		<path d="M562.4,552.3c-0.5,1-1.1,1.9-1.7,2.8c1.3-1.7,2.6-3.3,3.8-5c-0.8,1-1.7,2-2.8,2.8c-2.4,2.2-4.1,4.8-5.1,7.9
			c-1.5,2.9-2.2,6.1-2.1,9.4c-0.1,3.4,0.6,6.5,2.1,9.4c1,3,2.7,5.7,5.1,7.9c1.7,1.3,3.3,2.6,5,3.8c3.8,2.2,7.9,3.3,12.4,3.3
			c2.2-0.3,4.3-0.6,6.5-0.9c4.2-1.2,7.8-3.3,10.8-6.3c1-0.8,1.8-1.6,2.6-2.6c1.4-1.7,2.7-3.5,4-5.2c0.1-0.1,0.2-0.2,0.3-0.4
			c0.2-0.2,0.3-0.5,0.5-0.7c0.3-0.5,0.6-1.1,0.9-1.6c1.8-2.8,2.8-5.8,2.9-9.1c0.7-3.3,0.6-6.5-0.4-9.8c-0.8-3.2-2.2-6-4.4-8.3
			c-1.7-2.7-4-4.8-6.9-6.3c-2-0.8-3.9-1.6-5.9-2.5c-4.3-1.2-8.7-1.2-13,0c-2,0.8-3.9,1.6-5.9,2.5
			C567.5,545.7,564.6,548.6,562.4,552.3L562.4,552.3z" class="st21"></path>
	</g>
	<g>
		<path d="M676.6,576.4C676.6,576.5,676.6,576.5,676.6,576.4c0.3-2.1,0.6-4.2,0.9-6.4c-0.1,0.7-0.3,1.4-0.6,2.1
			c0.8-2,1.6-3.9,2.5-5.9c-0.3,0.7-0.7,1.3-1.1,1.9c1.3-1.7,2.6-3.3,3.8-5c-0.4,0.6-1,1.1-1.5,1.5c1.7-1.3,3.3-2.6,5-3.8
			c-0.3,0.2-0.6,0.4-0.9,0.6c-2.9,1.5-5.1,3.6-6.9,6.3c-2.2,2.4-3.6,5.1-4.4,8.3c-1,3.3-1.2,6.5-0.4,9.8c0.1,3.3,1.1,6.3,2.9,9.1
			c1.3,1.7,2.6,3.3,3.8,5c3.1,3,6.7,5.1,10.8,6.3c2.2,0.3,4.3,0.6,6.5,0.9c4.4,0,8.5-1.1,12.4-3.3c0.3-0.2,0.6-0.4,0.9-0.6
			c1.7-1.3,3.4-2.6,5.1-3.9c0.1,0,0.1-0.1,0.2-0.1c0.1-0.1,0.3-0.2,0.4-0.3c0.2-0.2,0.5-0.5,0.7-0.7c0.1-0.1,0.1-0.1,0.2-0.2
			c1.3-1.6,2.7-3.4,3.9-5.1c0.1-0.1,0.2-0.3,0.3-0.4c0.2-0.3,0.3-0.6,0.5-0.8c1.1-2.1,2-4.4,2.8-6.7c0.1-0.3,0.2-0.6,0.3-1
			c0.6-2.4,0.7-5.2,1-7.4c0.1-3.4-0.6-6.5-2.1-9.4c-1-3-2.7-5.7-5.1-7.9c-2.2-2.4-4.8-4.1-7.9-5.1c-2.9-1.5-6.1-2.2-9.4-2.1
			c-2.2,0.3-4.3,0.6-6.5,0.9c-4.2,1.2-7.8,3.3-10.8,6.3c-1.3,1.7-2.6,3.3-3.8,5C677.7,567.9,676.6,572,676.6,576.4L676.6,576.4z" class="st21"></path>
	</g>
	<g>
		<path d="M362.9,496.7c0,0.4-0.1,0.9-0.1,1.3c0.3-2.2,0.6-4.3,0.9-6.5c-0.5,3.6-1.4,7.1-2.9,10.5
			c-1,3.3-1.2,6.5-0.4,9.8c0.1,3.3,1.1,6.3,2.9,9.1c1.5,2.9,3.6,5.1,6.3,6.9c2.4,2.2,5.1,3.6,8.3,4.4c2.2,0.3,4.3,0.6,6.5,0.9
			c4.4,0,8.5-1.1,12.4-3.3c1.7-1.3,3.3-2.6,5-3.8c3-3.1,5.1-6.7,6.3-10.8c2.5-5.8,3.2-12,3.9-18.3c0.1-3.4-0.6-6.5-2.1-9.4
			c-1-3-2.7-5.7-5.1-7.9c-2.2-2.4-4.8-4.1-7.9-5.1c-2.9-1.5-6.1-2.2-9.4-2.1c-2.2,0.3-4.3,0.6-6.5,0.9c-4.2,1.2-7.8,3.3-10.8,6.3
			c-1.3,1.7-2.6,3.3-3.8,5C364,488.1,362.9,492.3,362.9,496.7L362.9,496.7z" class="st21"></path>
	</g>
	<g>
		<path d="M531.5,452.4c-1.6,2.9-3.2,5.7-4.7,8.6c-1.8,2.8-2.8,5.8-2.9,9.1c-0.7,3.3-0.6,6.5,0.4,9.8
			c0.8,3.2,2.2,6,4.4,8.3c1.7,2.7,4,4.8,6.9,6.3c2,0.8,3.9,1.6,5.9,2.5c4.3,1.2,8.7,1.2,13,0c2-0.8,3.9-1.6,5.9-2.5
			c3.7-2.2,6.6-5.1,8.8-8.8c1.6-2.9,3.2-5.7,4.7-8.6c1.8-2.8,2.8-5.8,2.9-9.1c0.7-3.3,0.6-6.5-0.4-9.8c-0.8-3.2-2.2-6-4.4-8.3
			c-1.7-2.7-4-4.8-6.9-6.3c-2-0.8-3.9-1.6-5.9-2.5c-4.3-1.2-8.7-1.2-13,0c-2,0.8-3.9,1.6-5.9,2.5
			C536.6,445.8,533.7,448.7,531.5,452.4L531.5,452.4z" class="st21"></path>
	</g>
	<g>
		<path d="M654.7,462c-0.2,0.8-0.4,1.6-0.8,2.4c0.8-2,1.6-3.9,2.5-5.9c-0.5,1.1-1.1,2.2-1.8,3.2c1.3-1.7,2.6-3.3,3.8-5
			c-0.4,0.5-0.8,1-1.3,1.5c-2.4,2.2-4.1,4.8-5.1,7.9c-1.5,2.9-2.2,6.1-2.1,9.4c-0.1,3.4,0.6,6.5,2.1,9.4c1,3,2.7,5.7,5.1,7.9
			c1.7,1.3,3.3,2.6,5,3.8c3.8,2.2,7.9,3.3,12.4,3.3c2.2-0.3,4.3-0.6,6.5-0.9c4.2-1.2,7.8-3.3,10.8-6.3c0.2-0.2,0.5-0.5,0.7-0.8
			c0.1-0.1,0.2-0.3,0.3-0.4c1.4-1.7,2.7-3.5,4.1-5.3c0.4-0.6,0.8-1.2,1.2-1.8c0.2-0.3,0.3-0.6,0.5-0.9c0.1-0.2,0.1-0.3,0.2-0.5
			c0.9-2.1,1.8-4.1,2.6-6.2c0.3-0.7,0.5-1.3,0.6-2c1-3.3,1.2-6.5,0.4-9.8c-0.1-3.3-1.1-6.3-2.9-9.1c-1.5-2.9-3.6-5.1-6.3-6.9
			c-2.4-2.2-5.1-3.6-8.3-4.4c-2.2-0.3-4.3-0.6-6.5-0.9c-4.4,0-8.5,1.1-12.4,3.3c-1.7,1.3-3.3,2.6-5,3.8
			C657.9,454.3,655.8,457.9,654.7,462L654.7,462z" class="st21"></path>
	</g>
	<g>
		<path d="M366.8,613.9c-0.6,5.5-1.1,10.9-1.7,16.4c-0.1,3.4,0.6,6.5,2.1,9.4c1,3,2.7,5.7,5.1,7.9
			c2.2,2.4,4.8,4.1,7.9,5.1c2.9,1.5,6.1,2.2,9.4,2.1c2.2-0.3,4.3-0.6,6.5-0.9c4.2-1.2,7.8-3.3,10.8-6.3c1.3-1.7,2.6-3.3,3.8-5
			c2.2-3.8,3.3-7.9,3.3-12.4c0.6-5.5,1.1-10.9,1.7-16.4c0.1-3.4-0.6-6.5-2.1-9.4c-1-3-2.7-5.7-5.1-7.9c-2.2-2.4-4.8-4.1-7.9-5.1
			c-2.9-1.5-6.1-2.2-9.4-2.1c-2.2,0.3-4.3,0.6-6.5,0.9c-4.2,1.2-7.8,3.3-10.8,6.3c-1.3,1.7-2.6,3.3-3.8,5
			C367.9,605.4,366.8,609.5,366.8,613.9L366.8,613.9z" class="st21"></path>
	</g>
	<g>
		<path d="M269.2,644.4c-0.1,1.3-0.2,2.6-0.4,3.8c0.3-2.2,0.6-4.3,0.9-6.5c-0.4,2.9-1,5.9-1.8,8.7
			c-1,3.3-1.2,6.5-0.4,9.8c0.1,3.3,1.1,6.3,2.9,9.1c1.5,2.9,3.6,5.1,6.3,6.9c2.4,2.2,5.1,3.6,8.3,4.4c2.2,0.3,4.3,0.6,6.5,0.9
			c4.4,0,8.5-1.1,12.4-3.3c1.7-1.3,3.3-2.6,5-3.8c3-3.1,5.1-6.7,6.3-10.8c0.6-2.1,1.1-4.2,1.4-6.3c0.7-4.2,1.3-8.5,1.6-12.7
			c0.1-3.4-0.6-6.5-2.1-9.4c-1-3-2.7-5.7-5.1-7.9c-2.2-2.4-4.8-4.1-7.9-5.1c-2.9-1.5-6.1-2.2-9.4-2.1c-2.2,0.3-4.3,0.6-6.5,0.9
			c-4.2,1.2-7.8,3.3-10.8,6.3c-1.3,1.7-2.6,3.3-3.8,5C270.3,635.9,269.2,640,269.2,644.4L269.2,644.4z" class="st21"></path>
	</g>
	<g>
		<path d="M296.6,757.8c-0.6,8.9-1.1,17.7-1.7,26.6c-0.1,3.4,0.6,6.5,2.1,9.4c1,3,2.7,5.7,5.1,7.9
			c2.2,2.4,4.8,4.1,7.9,5.1c2.9,1.5,6.1,2.2,9.4,2.1c2.2-0.3,4.3-0.6,6.5-0.9c4.2-1.2,7.8-3.3,10.8-6.3c1.3-1.7,2.6-3.3,3.8-5
			c2.2-3.8,3.3-7.9,3.3-12.4c0.6-8.9,1.1-17.7,1.7-26.6c0.1-3.4-0.6-6.5-2.1-9.4c-1-3-2.7-5.7-5.1-7.9c-2.2-2.4-4.8-4.1-7.9-5.1
			c-2.9-1.5-6.1-2.2-9.4-2.1c-2.2,0.3-4.3,0.6-6.5,0.9c-4.2,1.2-7.8,3.3-10.8,6.3c-1.3,1.7-2.6,3.3-3.8,5
			C297.7,749.3,296.6,753.4,296.6,757.8L296.6,757.8z" class="st21"></path>
	</g>
	<g>
		<path d="M398.4,719.5c-3.5,3.9-6.7,8-9.7,12.3c-1.9,2.6-3.6,5.4-5.2,8.2c-1.8,2.8-2.8,5.8-2.9,9.1
			c-0.7,3.3-0.6,6.5,0.4,9.8c0.8,3.2,2.2,6,4.4,8.3c1.7,2.7,4,4.8,6.9,6.3c2,0.8,3.9,1.6,5.9,2.5c4.3,1.2,8.7,1.2,13,0
			c2-0.8,3.9-1.6,5.9-2.5c3.7-2.2,6.6-5.1,8.8-8.8c2.1-3.8,4.5-7.4,7.1-10.8c-1.3,1.7-2.6,3.3-3.8,5c1.3-1.6,2.6-3.2,4-4.7
			c2.4-2.2,4.1-4.8,5.1-7.9c1.5-2.9,2.2-6.1,2.1-9.4c0.1-3.4-0.6-6.5-2.1-9.4c-1-3-2.7-5.7-5.1-7.9c-1.7-1.3-3.3-2.6-5-3.8
			c-3.8-2.2-7.9-3.3-12.4-3.3c-2.2,0.3-4.3,0.6-6.5,0.9C405.1,714.4,401.5,716.5,398.4,719.5L398.4,719.5z" class="st21"></path>
	</g>
	<g>
		<path d="M484.4,758.3c-2.4,1.6-4.8,3.3-7.2,5.1c-3.9,3-7.9,6-11.6,9.2c-2.4,2.2-4.1,4.8-5.1,7.9
			c-1.5,2.9-2.2,6.1-2.1,9.4c-0.1,3.4,0.6,6.5,2.1,9.4c1,3,2.7,5.7,5.1,7.9c1.7,1.3,3.3,2.6,5,3.8c3.8,2.2,7.9,3.3,12.4,3.3
			c2.2-0.3,4.3-0.6,6.5-0.9c4.2-1.2,7.8-3.3,10.8-6.3c2-1.7,4-3.3,6-4.9c-1.7,1.3-3.3,2.6-5,3.8c2.5-2,5.1-3.8,7.8-5.6
			c2.9-1.5,5.1-3.6,6.9-6.3c2.2-2.4,3.6-5.1,4.4-8.3c1-3.3,1.2-6.5,0.4-9.8c-0.1-3.3-1.1-6.3-2.9-9.1c-1.3-1.7-2.6-3.3-3.8-5
			c-3.1-3-6.7-5.1-10.8-6.3c-2.2-0.3-4.3-0.6-6.5-0.9C492.3,754.9,488.2,756.1,484.4,758.3L484.4,758.3z" class="st21"></path>
	</g>
	<path d="M303.4,324.9c22.5,12.4-5.4,40.5-20.8,96.8c-15.3,56.4,4.8,108.4-15.9,107.9c-19.8-0.4-24.9-50.3-22.9-113.8
		C245.8,352.3,278.5,311.1,303.4,324.9z" class="st18"></path>
</g>
</svg>
